<svg xmlns="http://www.w3.org/2000/svg" viewBox="0 0 24 24"><path d="m12,3.68c1.86,0,3.61.6,5.08,1.73.65.48,1.55.36,2.05-.28.48-.65.36-1.55-.28-2.05-1.98-1.52-4.35-2.32-6.85-2.32-2.74,0-5.39,1-7.46,2.83-2.04,1.8-3.35,4.27-3.71,6.97-.1.8.46,1.53,1.29,1.64h.17c.73.01,1.35-.54,1.44-1.26.53-4.13,4.08-7.25,8.26-7.25Z" /><path d="m21.9,11.83c-.79-.09-1.53.46-1.64,1.26-.53,4.13-4.08,7.25-8.26,7.25-1.86,0-3.62-.6-5.08-1.73-.65-.48-1.55-.36-2.05.28-.48.65-.36,1.55.27,2.05,1.98,1.52,4.34,2.32,6.84,2.32h.01c2.74,0,5.39-1.01,7.45-2.83,2.04-1.8,3.36-4.27,3.71-6.96.1-.8-.46-1.53-1.26-1.64Z" /><path d="m5.33,11.48l2.76,1.13c.67.31.98,1.06.71,1.71l-1.1,2.64c-.31.83.07,1.73.87,2.05.19.07.39.11.58.11.63,0,1.22-.36,1.46-.96l1.1-2.64c.46-1.1.46-2.31.01-3.4s-1.3-1.94-2.41-2.4l-2.65-1.1c-.85-.32-1.76.07-2.05.87-.28.77.02,1.6.71,1.98Z" /><path d="m17.69,12.79l-4.48,1.86c-.33.13-.59.4-.73.74-.14.34-.14.71,0,1.04.22.52.72.83,1.25.83.17,0,.35-.03.52-.11l4.48-1.86c.33-.13.59-.4.73-.74.14-.34.14-.7,0-1.03-.29-.69-1.08-1.01-1.77-.72Z" /></svg>